<?xml version="1.0" encoding="UTF-8"?>
<svg xmlns="http://www.w3.org/2000/svg" viewBox="0 0 1080 1080">
  <defs>
    <style>
      .cls-1 {
        fill: #be9b62;
      }

      .cls-2 {
        fill: none;
        stroke: #be9b62;
        stroke-linejoin: round;
        stroke-width: 25px;
      }
    </style>
  </defs>
  <g id="Layer_2" data-name="Layer 2">
    <rect x="-1080" y="-1080" width="3240" height="3241.5"/>
  </g>
  <g id="Layer_1" data-name="Layer 1">
    <g>
      <path class="cls-2" d="M353.27,739.94c-82.5,0-149.38-66.88-149.38-149.38,0-71.22,49.84-130.8,116.54-145.76-2.95-13.18-4.51-26.89-4.51-40.97,0-103.13,83.6-186.73,186.73-186.73,90.35,0,165.71,64.17,183,149.42,1.24-.02,2.48-.04,3.73-.04,103.13,0,186.73,83.6,186.73,186.73,0,90.34-64.15,165.69-149.38,182.99"/>
      <g>
        <line class="cls-2" x1="540" y1="902" x2="540" y2="542.98"/>
        <polygon class="cls-1" points="642.25 625.82 623.94 642.87 540.02 552.58 456.09 642.87 437.78 625.82 540.02 515.87 642.25 625.82"/>
      </g>
    </g>
  </g>
</svg>