<?xml version="1.0" encoding="UTF-8"?>
<svg id="Layer_1" xmlns="http://www.w3.org/2000/svg" version="1.1" viewBox="0 0 1080 1080">
  <!-- Generator: Adobe Illustrator 29.0.0, SVG Export Plug-In . SVG Version: 2.1.0 Build 186)  -->
  <defs>
    <style>
      .st0 {
        fill: none;
        stroke: #be9b62;
        stroke-linejoin: round;
        stroke-width: 25px;
      }
    </style>
  </defs>
  <g id="Layer_11" data-name="Layer_1">
    <path class="st0" d="M487.3,354.4v298.8c0,41.2,33.4,74.7,74.7,74.7h224.1M487.3,354.4v-74.7c0-41.2,33.4-74.7,74.7-74.7h171.3c9.9,0,19.4,3.9,26.4,10.9l164.9,164.9c7,7,10.9,16.5,10.9,26.4v246c0,41.2-33.4,74.7-74.7,74.7h-74.7M487.3,354.4h-121.4c-15.5,0-28,12.5-28,28v420.1c0,41.2,33.4,74.7,74.7,74.7h345.5c15.5,0,28-12.5,28-28v-121.4"/>
  </g>
</svg>