<svg width="64" height="64" viewBox="0 0 64 64" fill="none" xmlns="http://www.w3.org/2000/svg">
<path d="M21.3334 18.6667V40C21.3334 42.9455 23.7212 45.3333 26.6667 45.3333H42.6667M21.3334 18.6667V13.3333C21.3334 10.3878 23.7212 8 26.6667 8H38.8955C39.6028 8 40.281 8.28095 40.7811 8.78105L52.5524 20.5523C53.0525 21.0524 53.3334 21.7307 53.3334 22.4379V40C53.3334 42.9455 50.9456 45.3333 48.0001 45.3333H42.6667M21.3334 18.6667H12.6667C11.5622 18.6667 10.6667 19.5621 10.6667 20.6667V50.6667C10.6667 53.6122 13.0546 56 16.0001 56H40.6668C41.7713 56 42.6667 55.1046 42.6667 54V45.3333" stroke="white" stroke-width="2" stroke-linecap="round" stroke-linejoin="round"/>
</svg>
