<svg width="64" height="64" viewBox="0 0 64 64" fill="none" xmlns="http://www.w3.org/2000/svg">
<path d="M18.6667 42.6667C12.7756 42.6667 8 37.8911 8 32C8 26.9146 11.5588 22.6603 16.3219 21.5919C16.1112 20.6506 16 19.6716 16 18.6667C16 11.3029 21.9695 5.33337 29.3333 5.33337C35.7848 5.33337 41.1661 9.91537 42.4005 16.0026C42.489 16.0009 42.5777 16 42.6667 16C50.0305 16 56 21.9696 56 29.3334C56 35.7839 51.4193 41.1646 45.3333 42.4M40 34.6667L32 26.6667M32 26.6667L24 34.6667M32 26.6667L32 58.6667" stroke="white" stroke-width="2" stroke-linecap="round" stroke-linejoin="round"/>
</svg>
