<svg width="64" height="64" viewBox="0 0 64 64" fill="none" xmlns="http://www.w3.org/2000/svg">
<path d="M34.6667 42.6667L35.6667 42.6667L35.6667 42.6667L34.6667 42.6667ZM34.6667 21.3334L33.6667 21.3334L33.6667 21.3334L34.6667 21.3334ZM46.1144 19.4478L46.8215 18.7406L46.8215 18.7406L46.1144 19.4478ZM55.219 28.5523L55.9261 27.8452L55.9261 27.8452L55.219 28.5523ZM10.6667 14.3334H32V12.3334H10.6667V14.3334ZM33.6667 16V42.6667H35.6667V16H33.6667ZM9 42.6667V16H7V42.6667H9ZM13.3333 44.3334H10.6667V46.3334H13.3333V44.3334ZM32 44.3334H24V46.3334H32V44.3334ZM7 42.6667C7 44.6917 8.64162 46.3334 10.6667 46.3334V44.3334C9.74619 44.3334 9 43.5872 9 42.6667H7ZM33.6667 42.6667C33.6667 43.5872 32.9205 44.3334 32 44.3334V46.3334C34.0251 46.3334 35.6667 44.6918 35.6667 42.6667H33.6667ZM32 14.3334C32.9205 14.3334 33.6667 15.0796 33.6667 16H35.6667C35.6667 13.975 34.025 12.3334 32 12.3334V14.3334ZM10.6667 12.3334C8.64162 12.3334 7 13.975 7 16H9C9 15.0796 9.74619 14.3334 10.6667 14.3334V12.3334ZM35.6667 42.6667L35.6667 21.3334L33.6667 21.3334L33.6667 42.6667L35.6667 42.6667ZM37.3333 19.6667H44.2288V17.6667H37.3333V19.6667ZM55 30.4379V42.6667H57V30.4379H55ZM45.4073 20.1549L54.5118 29.2594L55.9261 27.8452L46.8215 18.7406L45.4073 20.1549ZM40 44.3334H37.3333V46.3334H40V44.3334ZM53.3333 44.3334H50.6667V46.3334H53.3333V44.3334ZM57 30.4379C57 29.4655 56.6137 28.5328 55.9261 27.8452L54.5118 29.2594C54.8244 29.572 55 29.9959 55 30.4379H57ZM44.2288 19.6667C44.6708 19.6667 45.0947 19.8423 45.4073 20.1549L46.8215 18.7406C46.1339 18.053 45.2012 17.6667 44.2288 17.6667V19.6667ZM33.6667 42.6667C33.6667 44.6917 35.3083 46.3334 37.3333 46.3334V44.3334C36.4129 44.3334 35.6667 43.5872 35.6667 42.6667H33.6667ZM55 42.6667C55 43.5872 54.2538 44.3334 53.3333 44.3334V46.3334C55.3584 46.3334 57 44.6917 57 42.6667H55ZM35.6667 21.3334C35.6667 20.4129 36.4129 19.6667 37.3333 19.6667V17.6667C35.3083 17.6667 33.6667 19.3083 33.6667 21.3334H35.6667ZM23 45.3334C23 47.7266 21.0599 49.6667 18.6667 49.6667V51.6667C22.1645 51.6667 25 48.8312 25 45.3334H23ZM18.6667 49.6667C16.2734 49.6667 14.3333 47.7266 14.3333 45.3334H12.3333C12.3333 48.8312 15.1689 51.6667 18.6667 51.6667V49.6667ZM14.3333 45.3334C14.3333 42.9401 16.2734 41 18.6667 41V39C15.1689 39 12.3333 41.8356 12.3333 45.3334H14.3333ZM18.6667 41C21.0599 41 23 42.9401 23 45.3334H25C25 41.8356 22.1645 39 18.6667 39V41ZM49.6667 45.3334C49.6667 47.7266 47.7266 49.6667 45.3333 49.6667V51.6667C48.8311 51.6667 51.6667 48.8312 51.6667 45.3334H49.6667ZM45.3333 49.6667C42.9401 49.6667 41 47.7266 41 45.3334H39C39 48.8312 41.8355 51.6667 45.3333 51.6667V49.6667ZM41 45.3334C41 42.9401 42.9401 41 45.3333 41V39C41.8355 39 39 41.8356 39 45.3334H41ZM45.3333 41C47.7266 41 49.6667 42.9401 49.6667 45.3334H51.6667C51.6667 41.8356 48.8311 39 45.3333 39V41Z" fill="white"/>
</svg>
