<?xml version="1.0" encoding="UTF-8"?>
<svg id="Layer_5" xmlns="http://www.w3.org/2000/svg" version="1.1" viewBox="0 0 75 75">
  <!-- Generator: Adobe Illustrator 29.0.0, SVG Export Plug-In . SVG Version: 2.1.0 Build 186)  -->
  <defs>
    <style>
      .st0 {
        fill: #fff;
      }

      .st1 {
        fill: #be9b61;
      }

      .st2 {
        fill: #1b1b1b;
      }
    </style>
  </defs>
  <rect class="st2" x="-.5" y="-.5" width="76" height="76"/>
  <polygon class="st1" points="5.8 48.9 11.1 48.9 15.9 37 20.4 48.9 25.6 48.9 15.7 26 5.8 48.9"/>
  <polygon class="st1" points="46.6 26.2 40.8 26.2 32.8 35.4 32.8 26.2 28.5 26.2 28.5 48.9 32.8 48.9 32.8 40.8 34.2 39.4 34.2 39.4 41 48.9 46.5 48.9 37.1 36.3 46.6 26.2"/>
  <polygon class="st0" points="59.5 38.1 54.6 26.2 49.4 26.2 59.3 49 69.2 26.2 63.9 26.2 59.5 38.1"/>
</svg>