<?xml version="1.0" encoding="UTF-8"?>
<svg id="Layer_1" xmlns="http://www.w3.org/2000/svg" version="1.1" viewBox="0 0 111.3 36.4">
  <!-- Generator: Adobe Illustrator 29.0.0, SVG Export Plug-In . SVG Version: 2.1.0 Build 186)  -->
  <defs>
    <style>
      .st0 {
        fill: #1da1f2;
      }

      .st1 {
        fill: #fff;
      }

      .st2 {
        fill: #be9b61;
      }
    </style>
  </defs>
  <g>
    <polygon class="st2" points="2.8 21 7.2 21 11.2 11.1 15 21 19.4 21 11.1 1.9 2.8 21"/>
    <path class="st2" d="M31.6,14.2c1.8-1,3-3,3-5.2v-.4c0-3.5-2.9-6.4-6.4-6.4h-6.6v18.9h3.6v-6.1h2.6l3.9,6.1h4.3l-4.4-6.9h0ZM25.2,5.7h2.7c1.6,0,2.9,1.3,2.9,2.9s-.3,1.5-.8,2-1.2.8-2,.8h-2.7v-5.8h-.1Z"/>
    <polygon class="st2" points="53.5 2.2 48.7 2.2 42 9.8 42 2.2 38.4 2.2 38.4 21 42 21 42 14.3 43.1 13.2 43.1 13.2 48.8 21 53.4 21 45.6 10.5 53.5 2.2"/>
  </g>
  <g>
    <polygon class="st1" points="87.4 12.1 83.3 2.2 78.9 2.2 87.2 21.2 95.5 2.2 91 2.2 87.4 12.1"/>
    <polygon class="st1" points="67.2 9.8 59.2 9.8 59.2 2.2 55.6 2.2 55.6 21 59.2 21 59.2 13.4 67.2 13.4 67.2 21 70.8 21 70.8 2.2 67.2 2.2 67.2 9.8"/>
    <rect class="st1" x="73" y="2.2" width="3.6" height="18.9"/>
    <polygon class="st1" points="108.5 5.7 108.5 2.2 97.7 2.2 97.7 21 108.5 21 108.5 17.5 101.4 17.5 101.4 13.4 107.4 13.4 107.4 9.8 101.4 9.8 101.4 5.7 108.5 5.7"/>
  </g>
  <g>
    <path class="st0" d="M2.8,27.6h3c-.4,0-.6.2-.7.6,0,.1,0,.3,0,.5v4.2c0,.6.1.9.4,1,0,0,.2,0,.3,0h0c0,0-3,0-3,0h0c0,0,.1,0,.2,0,0,0,.1,0,.2,0s0,0,.1,0,0,0,0,0c0,0,0,0,0-.1,0,0,0,0,0-.1,0,0,0-.1,0-.2,0,0,0-.1,0-.2,0,0,0-.1,0-.2v-4.2c0-.5,0-.8-.3-.9-.1,0-.3-.1-.5-.1h0Z"/>
    <path class="st0" d="M7.4,28.2h0v1.3h.7s-.7,0-.7,0v2.3c0,.5.1.7.3.7.2,0,.3,0,.5-.3,0,0,0,0,0,0h0c-.2.3-.3.5-.4.6-.2.2-.5.3-.7.3-.5,0-.8-.2-.9-.7,0-.2,0-.4,0-.6v-2.3h-.6s.6,0,.6,0v-.3s1.2-1,1.2-1Z"/>
    <path class="st0" d="M12.8,29.5h0v2.6c0,.5.1.8.4.9,0,0,.2,0,.2,0h0s-2.6,0-2.6,0h0c.3,0,.5-.2.6-.4,0-.1,0-.3,0-.5v-.9c0-.7-.2-1-.5-1h0s1.8-.7,1.8-.7ZM12.1,27.6c.3,0,.5.1.6.4,0,.1.1.3.1.4,0,.3-.1.5-.4.6-.1,0-.3.1-.4.1-.3,0-.5-.1-.6-.4,0-.1-.1-.3-.1-.4,0-.3.1-.5.4-.6.1,0,.3-.1.4-.1Z"/>
    <path class="st0" d="M15.3,29.5c0,0,.3,0,.6,0,.2,0,.3,0,.3,0h0v1.2c.1,0,0,0,0,0-.2-.7-.5-1.1-1.1-1.1-.2,0-.4.1-.4.3,0,.2,0,.3,0,.4,0,.1.3.3.7.5.5.2.8.4.9.5.2.2.4.4.4.6,0,.5-.2.8-.7,1-.3.1-.6.2-1.1.2s-.9-.2-1.2-.5c-.2-.2-.2-.4-.1-.6,0-.2.3-.4.5-.4.2,0,.4,0,.5.3,0,.1.1.3,0,.4-.2,0-.3,0-.4.1,0,0,0,.1,0,.2,0,.2.1.3.3.4,0,0,.2,0,.3,0,.3,0,.5-.1.7-.4,0,0,0-.2,0-.2,0-.2-.2-.4-.5-.6,0,0-.2,0-.3-.2-.4-.2-.7-.4-.9-.5-.1-.2-.2-.3-.2-.5,0-.4.1-.8.6-.9.2,0,.5-.1.9-.1Z"/>
    <path class="st0" d="M21.3,29.5h0v.4c.2-.3.5-.4.9-.4.9,0,1.4.4,1.5,1.3v.8c.2.7.3,1.1.3,1.2,0,.1.2.2.3.2h0s-2.3,0-2.3,0h0c.3,0,.4-.2.5-.5,0-.1,0-.3,0-.4v-1.4c-.2-.6-.4-.9-.7-1,0,0,0,0-.1,0-.3,0-.4.3-.4.7,0,.2,0,.4,0,.7v1c0,.6.1.9.4.9,0,0,0,0,0,0h0s-2.3,0-2.3,0h0c.3,0,.5-.3.5-.7,0,0,0-.2,0-.2v-.9c0-.7-.2-1-.5-1h0s1.7-.7,1.7-.7Z"/>
    <path class="st0" d="M26.4,29.5c.5,0,1,.2,1.3.6.3.3.5.7.5,1.2s-.2,1-.6,1.4c-.3.3-.7.4-1.2.4s-.9-.2-1.3-.5-.5-.8-.5-1.3.2-1,.6-1.3c.3-.3.7-.5,1.2-.5ZM26,29.7s0,0,0,0c-.3,0-.3.5-.2,1.2,0,.2,0,.4.1.6.2.7.4,1.2.7,1.4.1,0,.2.1.3,0,.2,0,.3-.4.3-1,0-.2,0-.5-.1-.8-.2-.7-.4-1.1-.7-1.4-.1,0-.2-.1-.3-.1Z"/>
    <path class="st0" d="M30.2,28.2h0v1.3h.7s-.7,0-.7,0v2.3c0,.5.1.7.3.7.2,0,.3,0,.5-.3,0,0,0,0,0,0h0c-.2.3-.3.5-.4.6-.2.2-.5.3-.7.3-.5,0-.8-.2-.9-.7,0-.2,0-.4,0-.6v-2.3h-.6s.6,0,.6,0v-.3s1.2-1,1.2-1Z"/>
    <path class="st0" d="M35.2,29.5c.9,0,1.5.3,1.8,1,0,.1,0,.2,0,.3h0c0,.1.1,1.2.1,1.2,0,.2,0,.4.1.5s.1.2.2.3c0,0,.1,0,.2,0s0,0,.1,0h0s0,0,0,0c0,0-.2.2-.5.2-.5.1-.8,0-1.1-.1,0,0-.2-.2-.2-.3,0,0,0,0-.2.1-.3.2-.6.3-1,.3s-.8-.1-1-.4c0-.1-.1-.3-.2-.4,0-.4.2-.7.6-.8,0,0,.3,0,.7-.2.4,0,.6-.2.7-.4,0,0,0-.2,0-.3h0c0-.4,0-.6-.1-.7,0-.2-.2-.3-.4-.3-.3,0-.5.1-.6.3h0c0,.3.1.4.4.4,0,.3,0,.5-.2.6-.2.1-.4.1-.6,0-.1,0-.2-.2-.3-.3,0-.3,0-.6.3-.8.2-.2.6-.3,1-.3ZM35.9,31c0,0-.1.2-.3.3-.2.2-.4.3-.4.5,0,.1,0,.2,0,.3,0,.3.1.6.4.7.2.1.3,0,.5,0,.1,0,.2-.2.1-.4l-.2-1.4Z"/>
    <path class="st0" d="M42.4,29.5h0v.3c.3-.2.5-.3.8-.3.5,0,1,.2,1.3.6.2.3.3.6.4.9.1.6,0,1.2-.4,1.6-.3.3-.6.5-1.1.5,0,0,0,0,0,0-.4,0-.7-.1-1-.4v1.3c0,.5.1.8.4.9,0,0,.2,0,.3,0h0c0,0-2.5,0-2.5,0h0c.3,0,.5-.2.6-.4,0-.1,0-.3,0-.5v-2.8c0-.7-.2-1-.5-1h0s1.7-.7,1.7-.7ZM42.8,29.7s0,0,0,0c-.2,0-.3.4-.3,1,0,.2,0,.5.1.8.2.7.4,1.2.7,1.4,0,0,.2,0,.2,0,0,0,0,0,0,0,.2,0,.3-.4.3-1,0-.2,0-.5-.2-.8-.2-.7-.4-1.2-.7-1.4,0,0-.2,0-.2,0Z"/>
    <path class="st0" d="M48.2,29.5c.3,0,.6.1.7.4.1.2.1.5,0,.8-.1.2-.3.3-.6.3-.2,0-.4-.1-.5-.3,0,0,0,0,0-.1.2,0,.3-.1.4-.3,0-.2,0-.3-.1-.4,0,0-.2,0-.3,0-.2,0-.4.2-.5.5,0,.2,0,.5,0,.9v1.1c0,.5.1.8.4.9,0,0,.2,0,.3,0h0s-2.5,0-2.5,0h0c.3,0,.5-.2.6-.4,0-.1,0-.3,0-.5v-.9c0-.7-.2-1-.5-1h0s1.7-.7,1.7-.7h0v.4c.1-.2.3-.3.6-.4.1,0,.2,0,.3,0Z"/>
    <path class="st0" d="M51.2,29.5h0v2.6c0,.5.1.8.4.9,0,0,.2,0,.2,0h0s-2.6,0-2.6,0h0c.3,0,.5-.2.6-.4,0-.1,0-.3,0-.5v-.9c0-.7-.2-1-.5-1h0s1.8-.7,1.8-.7ZM50.5,27.6c.3,0,.5.1.6.4,0,.1.1.3.1.4,0,.3-.1.5-.4.6-.1,0-.3.1-.4.1-.3,0-.5-.1-.6-.4,0-.1-.1-.3-.1-.4,0-.3.1-.5.4-.6.1,0,.3-.1.4-.1Z"/>
    <path class="st0" d="M53.9,29.5c.5,0,1,.2,1.3.6.3.3.5.7.5,1.2s-.2,1-.6,1.4c-.3.3-.7.4-1.2.4s-.9-.2-1.3-.5-.5-.8-.5-1.3.2-1,.6-1.3c.3-.3.7-.5,1.2-.5ZM53.5,29.7s0,0,0,0c-.3,0-.3.5-.2,1.2,0,.2,0,.4.1.6.2.7.4,1.2.7,1.4.1,0,.2.1.3,0,.2,0,.3-.4.3-1,0-.2,0-.5-.1-.8-.2-.7-.4-1.1-.7-1.4-.1,0-.2-.1-.3-.1Z"/>
    <path class="st0" d="M59,29.5c.3,0,.6.1.7.4.1.2.1.5,0,.8-.1.2-.3.3-.6.3-.2,0-.4-.1-.5-.3,0,0,0,0,0-.1.2,0,.3-.1.4-.3,0-.2,0-.3-.1-.4,0,0-.2,0-.3,0-.2,0-.4.2-.5.5,0,.2,0,.5,0,.9v1.1c0,.5.1.8.4.9,0,0,.2,0,.3,0h0s-2.5,0-2.5,0h0c.3,0,.5-.2.6-.4,0-.1,0-.3,0-.5v-.9c0-.7-.2-1-.5-1h0s1.7-.7,1.7-.7h0v.4c.1-.2.3-.3.6-.4.1,0,.2,0,.3,0Z"/>
    <path class="st0" d="M62,29.5h0v2.6c0,.5.1.8.4.9,0,0,.2,0,.2,0h0s-2.6,0-2.6,0h0c.3,0,.5-.2.6-.4,0-.1,0-.3,0-.5v-.9c0-.7-.2-1-.5-1h0s1.8-.7,1.8-.7ZM61.3,27.6c.3,0,.5.1.6.4,0,.1.1.3.1.4,0,.3-.1.5-.4.6-.1,0-.3.1-.4.1-.3,0-.5-.1-.6-.4,0-.1-.1-.3-.1-.4,0-.3.1-.5.4-.6.1,0,.3-.1.4-.1Z"/>
    <path class="st0" d="M64.3,28.2h0v1.3h.7s-.7,0-.7,0v2.3c0,.5.1.7.3.7.2,0,.3,0,.5-.3,0,0,0,0,0,0h0c-.2.3-.3.5-.4.6-.2.2-.5.3-.7.3-.5,0-.8-.2-.9-.7,0-.2,0-.4,0-.6v-2.3h-.6s.6,0,.6,0v-.3s1.2-1,1.2-1Z"/>
    <path class="st0" d="M65.3,29.5h2.6c-.4,0-.5.2-.5.6,0,.1,0,.3.1.4l.7,1.6.6-1.6c.2-.5.2-.8,0-.9,0,0,0,0-.1,0h0c0,0,1.4,0,1.4,0h0c-.4.1-.7.2-.8.4,0,.1-.2.3-.3.6l-1.3,3.4c-.2.6-.5.9-.9,1,0,0-.2,0-.3,0-.3,0-.5,0-.7-.3-.2-.2-.2-.4-.2-.7,0-.3.2-.4.4-.5.2,0,.5,0,.6.1.1,0,.2.2.2.4-.1,0-.2,0-.3.2,0,.2,0,.3.1.3,0,0,0,0,.1,0,.3,0,.6,0,.7-.4,0,0,0,0,0,0v-.2c0,0-1.4-3.3-1.4-3.3-.3-.6-.5-.9-.8-.9h0Z"/>
    <path class="st0" d="M70.9,32.1c.2,0,.4,0,.5.3,0,0,0,.2,0,.2,0,.5-.2.8-.5,1,0,0-.2,0-.3.1h0c.1-.2.2-.3.3-.6-.2,0-.4-.1-.4-.3,0,0,0-.1,0-.2,0-.2,0-.4.3-.5,0,0,.2,0,.2,0Z"/>
    <path class="st0" d="M75.9,29.5h0v2.3c0,.8.2,1.2.6,1.2,0,0,0,0,0,0,.3,0,.4-.1.5-.4,0-.2.1-.5.1-.9v-.5c0-.6-.2-1-.5-1,0,0,0,0,0,0h0s1.7-.7,1.7-.7h0v2.4c0,.4,0,.6.1.7s.2.2.3.2h.1s0,0,0,0c-.1.1-.3.2-.6.2-.5,0-.9,0-1.1-.4,0,0,0,0,0,0-.2.3-.6.4-1.1.4-.6,0-1.1-.2-1.3-.6-.1-.2-.2-.4-.2-.7v-.6c0-.6-.2-1-.5-1,0,0,0,0,0,0h0s1.7-.7,1.7-.7Z"/>
    <path class="st0" d="M81,29.5h0v.4c.2-.3.5-.4.9-.4.9,0,1.4.4,1.5,1.3v.8c.2.7.3,1.1.3,1.2,0,.1.2.2.3.2h0s-2.3,0-2.3,0h0c.3,0,.4-.2.5-.5,0-.1,0-.3,0-.4v-1.4c-.2-.6-.4-.9-.7-1,0,0,0,0-.1,0-.3,0-.4.3-.4.7,0,.2,0,.4,0,.7v1c0,.6.1.9.4.9,0,0,0,0,0,0h0s-2.3,0-2.3,0h0c.3,0,.5-.3.5-.7,0,0,0-.2,0-.2v-.9c0-.7-.2-1-.5-1h0s1.7-.7,1.7-.7Z"/>
    <path class="st0" d="M85.8,28.2h0v1.3h.7s-.7,0-.7,0v2.3c0,.5.1.7.3.7.2,0,.3,0,.5-.3,0,0,0,0,0,0h0c-.2.3-.3.5-.4.6-.2.2-.5.3-.7.3-.5,0-.8-.2-.9-.7,0-.2,0-.4,0-.6v-2.3h-.6s.6,0,.6,0v-.3s1.2-1,1.2-1Z"/>
    <path class="st0" d="M88.6,29.5h0v2.6c0,.5.1.8.4.9,0,0,.2,0,.2,0h0s-2.6,0-2.6,0h0c.3,0,.5-.2.6-.4,0-.1,0-.3,0-.5v-.9c0-.7-.2-1-.5-1h0s1.8-.7,1.8-.7ZM87.9,27.6c.3,0,.5.1.6.4,0,.1.1.3.1.4,0,.3-.1.5-.4.6-.1,0-.3.1-.4.1-.3,0-.5-.1-.6-.4,0-.1-.1-.3-.1-.4,0-.3.1-.5.4-.6.1,0,.3-.1.4-.1Z"/>
    <path class="st0" d="M91.4,27.6h0v4.6c0,.5.1.8.4.9,0,0,.2,0,.2,0h0s-2.5,0-2.5,0h0c.3,0,.5-.2.6-.4,0-.1,0-.3,0-.5v-2.8c0-.7-.2-1-.5-1h0c0,0,1.7-.7,1.7-.7Z"/>
    <path class="st0" d="M96.7,29.5h0v2.6c0,.5.1.8.4.9,0,0,.2,0,.2,0h0s-2.6,0-2.6,0h0c.3,0,.5-.2.6-.4,0-.1,0-.3,0-.5v-.9c0-.7-.2-1-.5-1h0s1.8-.7,1.8-.7ZM96,27.6c.3,0,.5.1.6.4,0,.1.1.3.1.4,0,.3-.1.5-.4.6-.1,0-.3.1-.4.1-.3,0-.5-.1-.6-.4,0-.1-.1-.3-.1-.4,0-.3.1-.5.4-.6.1,0,.3-.1.4-.1Z"/>
    <path class="st0" d="M99,28.2h0v1.3h.7s-.7,0-.7,0v2.3c0,.5.1.7.3.7.2,0,.3,0,.5-.3,0,0,0,0,0,0h0c-.2.3-.3.5-.4.6-.2.2-.5.3-.7.3-.5,0-.8-.2-.9-.7,0-.2,0-.4,0-.6v-2.3h-.6s.6,0,.6,0v-.3s1.2-1,1.2-1Z"/>
    <path class="st0" d="M104.5,29.5h0v2.6c0,.5.1.8.4.9,0,0,.2,0,.2,0h0s-2.6,0-2.6,0h0c.3,0,.5-.2.6-.4,0-.1,0-.3,0-.5v-.9c0-.7-.2-1-.5-1h0s1.8-.7,1.8-.7ZM103.8,27.6c.3,0,.5.1.6.4,0,.1.1.3.1.4,0,.3-.1.5-.4.6-.1,0-.3.1-.4.1-.3,0-.5-.1-.6-.4,0-.1-.1-.3-.1-.4,0-.3.1-.5.4-.6.1,0,.3-.1.4-.1Z"/>
    <path class="st0" d="M106.9,29.5c0,0,.3,0,.6,0,.2,0,.3,0,.3,0h0v1.2c.1,0,0,0,0,0-.2-.7-.5-1.1-1.1-1.1-.2,0-.4.1-.4.3,0,.2,0,.3,0,.4,0,.1.3.3.7.5.5.2.8.4.9.5.2.2.4.4.4.6,0,.5-.2.8-.7,1-.3.1-.6.2-1.1.2s-.9-.2-1.2-.5c-.2-.2-.2-.4-.1-.6,0-.2.3-.4.5-.4.2,0,.4,0,.5.3,0,.1.1.3,0,.4-.2,0-.3,0-.4.1,0,0,0,.1,0,.2,0,.2.1.3.3.4,0,0,.2,0,.3,0,.3,0,.5-.1.7-.4,0,0,0-.2,0-.2,0-.2-.2-.4-.5-.6,0,0-.2,0-.3-.2-.4-.2-.7-.4-.9-.5-.1-.2-.2-.3-.2-.5,0-.4.1-.8.6-.9.2,0,.5-.1.9-.1Z"/>
    <path class="st0" d="M109.4,32.1c.2,0,.4,0,.5.3,0,0,0,.2,0,.2,0,.2,0,.4-.3.5,0,0-.2,0-.2,0-.2,0-.4,0-.5-.3,0,0,0-.2,0-.2,0-.2,0-.4.3-.5,0,0,.2,0,.2,0Z"/>
  </g>
</svg>