<?xml version="1.0" encoding="UTF-8"?>
<svg id="Layer_1" xmlns="http://www.w3.org/2000/svg" version="1.1" viewBox="0 0 181.3 23.8">
  <!-- Generator: Adobe Illustrator 29.0.0, SVG Export Plug-In . SVG Version: 2.1.0 Build 186)  -->
  <defs>
    <style>
      .st0 {
        fill: #121212;
      }
    </style>
  </defs>
  <path class="st0" d="M32.7-44.1v.3c0,3.3-.6,6.5-1.7,9.6h0c-4.3-.4-8.3-2.1-11.6-4.6l4-8.4-8.4,4c-2.5-3.3-4.2-7.2-4.8-11.6h.3c3.1-1.2,6.3-1.8,9.6-1.8,7,0,12.7,5.7,12.7,12.7h0v-.2h0Z"/>
  <path class="st0" d="M32.7-72.4v.2c0,7-5.7,12.7-12.7,12.7h-.2c-3.3,0-6.5-.6-9.6-1.7h-.1c.6-4.4,2.3-8.3,4.8-11.6l8.4,3.9-3.9-8.4c3.3-2.5,7.2-4.2,11.5-4.8h0c1.1,3.2,1.7,6.4,1.7,9.7h0Z"/>
  <path class="st0" d="M58.2-61.3h0c-3.1,1.2-6.3,1.7-9.6,1.7h-.2c-7,0-12.7-5.7-12.7-12.7v-.2c0-3.3.6-6.5,1.7-9.6h0c4.3.4,8.3,2.1,11.6,4.7l-3.9,8.4,8.4-3.9c2.5,3.3,4.2,7.2,4.8,11.6h-.1Z"/>
  <path class="st0" d="M53.4-43.4l-8.4-4,3.9,8.4c-3.3,2.5-7.2,4.2-11.6,4.8h0c-1.1-3.2-1.7-6.4-1.7-9.7v-.2c0-7,5.7-12.7,12.7-12.7h.2c3.3,0,6.5.6,9.6,1.7h0c-.6,4.4-2.3,8.3-4.8,11.6h0Z"/>
  <g>
    <g>
      <path class="st0" d="M49.2,6.1h-1.6c-3.4,0-6.4,2.5-7,5.9-.7,4.1,2.1,7.7,5.8,8.3.4,0,.7,0,1.1,0h1.9c.4,0,.7,0,1.1,0,3.7-.6,6.4-4.2,5.8-8.3-.6-3.5-3.6-5.9-7-5.9ZM49.4,17h-1.9c-1.6,0-3.1-1.1-3.6-2.7-.8-2.7,1.1-5.2,3.6-5.2h1.9c1.6,0,3.1,1,3.6,2.6.8,2.7-1.1,5.2-3.6,5.2Z"/>
      <path class="st0" d="M66.7,6.1h-1.6c-3.4,0-6.4,2.5-7,5.9s2.1,7.7,5.8,8.3c.4,0,.7,0,1.1,0h1.9c.4,0,.7,0,1.1,0,3.7-.6,6.4-4.2,5.8-8.3s-3.6-5.9-7-5.9ZM66.9,17h-1.9c-1.6,0-3.1-1-3.6-2.7-.8-2.7,1.1-5.2,3.6-5.2h1.9c1.6,0,3.1,1,3.6,2.6.8,2.7-1.1,5.2-3.6,5.2Z"/>
    </g>
    <path class="st0" d="M18.6,12.6c-.5-.4-1-.6-1.6-.8-.4-.1-.8-.2-1.2-.2H7.2c-.4,0-.8-.2-1-.6-.3-.8.3-1.5,1-1.5h11.2s0-3.4,0-3.4H7.4c-2,0-3.8,1.3-4.3,3.2s0,3,.9,4c.8,1,2,1.6,3.4,1.6h8.7c.2,0,.4,0,.6.2.4.3.6.8.4,1.3s-.6.6-1,.6H4.1s0,3.4,0,3.4h11.7c2.1,0,4-1.4,4.4-3.5.4-1.8-.3-3.5-1.6-4.4Z"/>
    <polygon class="st0" points="26 20.1 26 16.3 35.7 16.3 35.7 20.1 35.7 20.5 39.1 20.5 39.1 20.1 39.1 6.6 35.7 6.6 35.7 13.3 26 13.3 26 6.6 22.6 6.6 22.6 20.1 22.6 20.5 26 20.5 26 20.1"/>
    <g>
      <path class="st0" d="M145.1,6.6v7.5c0,3.2-2.3,5.8-5.2,6.3-.3,0-.7,0-1,0h-3.9c-.3,0-.7,0-1,0-3-.5-5.2-3.1-5.2-6.3v-7.5h2.9v7.5c0,1.7,1.4,3.1,3.1,3.1h3.9c1.7,0,3.1-1.4,3.1-3.1v-7.5h3.4Z"/>
      <path class="st0" d="M94.1,16.1c-.1.6-.7,1-1.3,1h-3.2c-.6,0-1.1-.4-1.3-1l-2.3-10h-3.4s2.5,10.8,2.5,10.8c.3,1.4,1.2,2.5,2.4,3.1.6.3,1.3.5,2,.5h3.2c.7,0,1.4-.2,2-.5,1.2-.6,2.1-1.7,2.4-3.1l2.5-10.8h-3.4s-2.3,10-2.3,10Z"/>
      <path class="st0" d="M157.2,6.6h-2.9c-1.9,0-3.6,1.3-4.1,3.2l-2.9,10.7h3s.9-3.4.9-3.4h0s9.3,0,9.3,0h0s.9,3.4.9,3.4h3s-2.9-10.7-2.9-10.7c-.5-1.9-2.2-3.2-4.2-3.2ZM154.3,9.2h3c.6,0,1.2.5,1.4,1.1l1,3.8h-7.8s1-3.8,1-3.8c.2-.7.8-1.1,1.4-1.1Z"/>
      <path class="st0" d="M124.7,12.6c-.5-.4-1-.6-1.6-.8-.4-.1-.8-.2-1.2-.2h-8.7c-.4,0-.8-.2-1-.6-.3-.8.3-1.5,1-1.5h11.2s0-3.4,0-3.4h-11.1c-2,0-3.8,1.3-4.3,3.2s0,3,.9,4c.8,1,2,1.6,3.4,1.6h8.7c.2,0,.4,0,.6.2.4.3.6.8.4,1.3s-.6.6-1,.6h-11.9s0,3.4,0,3.4h11.7c2.1,0,4-1.4,4.4-3.5s-.3-3.5-1.6-4.4Z"/>
      <polygon class="st0" points="169.4 17.5 169.4 6.6 166.4 6.6 166.4 20.5 177.7 20.5 177.7 17.5 169.4 17.5"/>
      <polygon class="st0" points="103 20.1 103 20.5 106.4 20.5 106.4 20.1 106.4 6.6 103 6.6 103 20.1"/>
    </g>
    <g>
      <path class="st0" d="M174.9,4h-.8s0,2.2,0,2.2h-.7v-2.2s-.8,0-.8,0v-.6h2.4v.6Z"/>
      <path class="st0" d="M175.3,3.3h1.1s.5,1.9.5,1.9h0s.5-1.9.5-1.9h1.1v2.8h-.7v-2.1s0,0,0,0l-.6,2.1h-.6s-.6-2.1-.6-2.1h0s0,2.1,0,2.1h-.7v-2.8Z"/>
    </g>
  </g>
  <g>
    <g>
      <g>
        <g>
          <g>
            <path class="st0" d="M116.7,87.9h-1.6c-3.4,0-6.4,2.4-7,5.8-.7,4,2.1,7.5,5.8,8,.4,0,.7,0,1.1,0h1.9c.4,0,.7,0,1.1,0,3.7-.6,6.4-4.1,5.8-8-.6-3.4-3.6-5.8-7-5.8ZM116.8,98.4h-1.9c-1.6,0-3.1-1-3.6-2.6-.8-2.6,1.1-5,3.6-5h1.9c1.6,0,3.1,1,3.6,2.6.8,2.6-1.1,5-3.6,5Z"/>
            <path class="st0" d="M134.1,87.9h-1.6c-3.4,0-6.4,2.4-7,5.8s2.1,7.5,5.8,8c.4,0,.7,0,1.1,0h1.9c.4,0,.7,0,1.1,0,3.7-.6,6.4-4.1,5.8-8s-3.6-5.8-7-5.8ZM134.3,98.4h-1.9c-1.6,0-3.1-1-3.6-2.6-.8-2.6,1.1-5,3.6-5h1.9c1.6,0,3.1,1,3.6,2.6.8,2.6-1.1,5-3.6,5Z"/>
          </g>
          <path class="st0" d="M133,104.7v7.5c0,3.2-2.3,5.8-5.2,6.3-.3,0-.7,0-1,0h-3.9c-.3,0-.7,0-1,0-3-.5-5.2-3.1-5.2-6.3v-7.5h2.9v7.5c0,1.7,1.4,3.1,3.1,3.1h3.9c1.7,0,3.1-1.4,3.1-3.1v-7.5h3.4Z"/>
        </g>
        <g>
          <path class="st0" d="M86,94.3c-.5-.4-1-.6-1.6-.8-.4-.1-.8-.2-1.2-.2h-8.7c-.4,0-.8-.2-1-.6-.3-.8.3-1.5,1-1.5h11.2s0-3.4,0-3.4h-11.1c-2,0-3.8,1.3-4.3,3.2s0,3,.9,4c.8,1,2,1.6,3.4,1.6h8.7c.2,0,.4,0,.6.2.4.3.6.8.4,1.3s-.6.6-1,.6h-11.9s0,3.4,0,3.4h11.7c2.1,0,4-1.4,4.4-3.5.4-1.8-.3-3.5-1.6-4.4Z"/>
          <polygon class="st0" points="93.4 101.4 93.4 97.6 103.1 97.6 103.1 101.4 103.1 101.8 106.5 101.8 106.5 101.4 106.5 87.9 103.1 87.9 103.1 94.6 93.4 94.6 93.4 87.9 90.1 87.9 90.1 101.4 90.1 101.8 93.4 101.8 93.4 101.4"/>
          <path class="st0" d="M82,114.7c-.1.6-.7,1-1.3,1h-3.2c-.6,0-1.1-.4-1.3-1l-2.3-10h-3.4s2.5,10.8,2.5,10.8c.3,1.4,1.2,2.5,2.4,3.1.6.3,1.3.5,2,.5h3.2c.7,0,1.4-.2,2-.5,1.2-.6,2.1-1.7,2.4-3.1l2.5-10.8h-3.4s-2.3,10-2.3,10Z"/>
          <path class="st0" d="M146.3,103h-3.2c-2.2,0-4.1,1.5-4.7,3.6l-3.3,12h3.3s1-3.8,1-3.8h0s10.4,0,10.4,0h0s1,3.8,1,3.8h3.3s-3.3-12-3.3-12c-.6-2.1-2.5-3.6-4.7-3.6ZM143,106h3.3c.7,0,1.4.5,1.6,1.3l1.2,4.2h-8.8s1.2-4.2,1.2-4.2c.2-.7.8-1.3,1.6-1.3Z"/>
          <path class="st0" d="M112.6,111.2c-.5-.4-1-.6-1.6-.8-.4-.1-.8-.2-1.2-.2h-8.7c-.4,0-.8-.2-1-.6-.3-.8.3-1.5,1-1.5h11.2s0-3.4,0-3.4h-11.1c-2,0-3.8,1.3-4.3,3.2s0,3,.9,4c.8,1,2,1.6,3.4,1.6h8.7c.2,0,.4,0,.6.2.4.3.6.8.4,1.3s-.6.6-1,.6h-11.9s0,3.4,0,3.4h11.7c2.1,0,4-1.4,4.4-3.5s-.3-3.5-1.6-4.4Z"/>
          <polygon class="st0" points="160 115.3 160 103 156.6 103 156.6 118.6 169.3 118.6 169.3 115.3 160 115.3"/>
          <polygon class="st0" points="90.9 118.3 90.9 118.6 94.3 118.6 94.3 118.3 94.3 104.7 90.9 104.7 90.9 118.3"/>
        </g>
      </g>
      <g>
        <path class="st0" d="M147.8,88.5h-.8s0,2.2,0,2.2h-.7v-2.2s-.8,0-.8,0v-.6h2.4v.6Z"/>
        <path class="st0" d="M148.1,87.9h1.1s.5,1.9.5,1.9h0s.5-1.9.5-1.9h1.1v2.8h-.7v-2.1s0,0,0,0l-.6,2.1h-.6s-.6-2.1-.6-2.1h0s0,2.1,0,2.1h-.7v-2.8Z"/>
      </g>
    </g>
    <g>
      <path class="st0" d="M34,109.3v.2c0,3.2-.6,6.3-1.6,9.3h0c-4.2-.4-8.1-2.1-11.3-4.5l3.9-8.2-8.2,3.9c-2.5-3.2-4.1-7.1-4.7-11.3h.3c3-1.2,6.2-1.8,9.4-1.8h0c6.8,0,12.4,5.5,12.4,12.4Z"/>
      <path class="st0" d="M34,81.6v.2c0,6.8-5.5,12.4-12.4,12.4h-.2c-3.2,0-6.3-.6-9.3-1.6h-.1c.6-4.3,2.2-8.1,4.7-11.3l8.2,3.9-3.9-8.2c3.2-2.5,7.1-4.1,11.3-4.7h0c1.1,3.1,1.6,6.3,1.6,9.5Z"/>
      <path class="st0" d="M58.9,92.5h-.1c-3,1.1-6.2,1.7-9.3,1.7h-.2c-6.8,0-12.4-5.5-12.4-12.4v-.2c0-3.2.6-6.3,1.6-9.3h0c4.2.4,8.1,2.1,11.3,4.5l-3.9,8.2,8.2-3.9c2.5,3.2,4.1,7.1,4.7,11.3Z"/>
      <path class="st0" d="M54.2,110l-8.2-3.9,3.9,8.2c-3.2,2.5-7.1,4.1-11.3,4.7h0c-1.1-3.1-1.6-6.3-1.6-9.5v-.2c0-6.8,5.5-12.4,12.4-12.4h.2c3.2,0,6.3.6,9.3,1.6h.1c-.6,4.3-2.2,8.1-4.7,11.3Z"/>
    </g>
  </g>
</svg>