<?xml version="1.0" encoding="UTF-8"?>
<svg id="Layer_1" xmlns="http://www.w3.org/2000/svg" version="1.1" viewBox="0 0 111.3 23.1">
  <!-- Generator: Adobe Illustrator 29.0.0, SVG Export Plug-In . SVG Version: 2.1.0 Build 186)  -->
  <defs>
    <style>
      .st0 {
        fill: #be9b61;
      }

      .st1 {
        fill: #1b1b1b;
      }
    </style>
  </defs>
  <g>
    <polygon class="st0" points="2.8 21 7.2 21 11.2 11.1 15 21 19.4 21 11.1 1.9 2.8 21"/>
    <path class="st0" d="M31.6,14.2c1.8-1,3-3,3-5.2v-.4c0-3.5-2.9-6.4-6.4-6.4h-6.6v18.9s3.6,0,3.6,0v-6.1h2.6l3.9,6.1h4.3l-4.4-6.9s0,0,0,0ZM25.2,5.7h2.7c1.6,0,2.9,1.3,2.9,2.9s-.3,1.5-.8,2c-.5.5-1.2.8-2,.8h-2.7v-5.8Z"/>
    <polygon class="st0" points="53.5 2.2 48.7 2.2 42 9.8 42 2.2 38.4 2.2 38.4 21 42 21 42 14.3 43.1 13.2 43.1 13.2 48.8 21 53.4 21 45.6 10.5 53.5 2.2"/>
  </g>
  <g>
    <polygon class="st1" points="87.4 12.1 83.3 2.2 78.9 2.2 87.2 21.2 95.5 2.2 91 2.2 87.4 12.1"/>
    <polygon class="st1" points="67.2 9.8 59.2 9.8 59.2 2.2 55.6 2.2 55.6 21 59.2 21 59.2 13.4 67.2 13.4 67.2 21 70.8 21 70.8 2.2 67.2 2.2 67.2 9.8"/>
    <rect class="st1" x="73" y="2.2" width="3.6" height="18.9"/>
    <polygon class="st1" points="108.5 5.7 108.5 2.2 97.7 2.2 97.7 21 108.5 21 108.5 17.5 101.4 17.5 101.4 13.4 107.4 13.4 107.4 9.8 101.4 9.8 101.4 5.7 108.5 5.7"/>
  </g>
</svg>