<?xml version="1.0" encoding="UTF-8"?>
<svg id="Layer_1" xmlns="http://www.w3.org/2000/svg" version="1.1" viewBox="0 0 111.3 37">
  <!-- Generator: Adobe Illustrator 29.0.0, SVG Export Plug-In . SVG Version: 2.1.0 Build 186)  -->
  <defs>
    <style>
      .st0, .st1 {
        fill: #1da1f2;
      }

      .st2 {
        fill: #fff;
      }

      .st1 {
        font-family: Montserrat-Medium, Montserrat;
        font-size: 9px;
        font-weight: 500;
        letter-spacing: 0em;
      }

      .st3 {
        fill: #be9b61;
      }
    </style>
  </defs>
  <g>
    <polygon class="st3" points="2.8 21 7.2 21 11.2 11.1 15 21 19.4 21 11.1 1.9 2.8 21"/>
    <path class="st3" d="M31.6,14.2c1.8-1,3-3,3-5.2v-.4c0-3.5-2.9-6.4-6.4-6.4h-6.6v18.9h3.6v-6.1h2.6l3.9,6.1h4.3l-4.4-6.9h0ZM25.2,5.7h2.7c1.6,0,2.9,1.3,2.9,2.9s-.3,1.5-.8,2-1.2.8-2,.8h-2.7v-5.8h-.1Z"/>
    <polygon class="st3" points="53.5 2.2 48.7 2.2 42 9.8 42 2.2 38.4 2.2 38.4 21 42 21 42 14.3 43.1 13.2 43.1 13.2 48.8 21 53.4 21 45.6 10.5 53.5 2.2"/>
  </g>
  <g>
    <polygon class="st2" points="87.4 12.1 83.3 2.2 78.9 2.2 87.2 21.2 95.5 2.2 91 2.2 87.4 12.1"/>
    <polygon class="st2" points="67.2 9.8 59.2 9.8 59.2 2.2 55.6 2.2 55.6 21 59.2 21 59.2 13.4 67.2 13.4 67.2 21 70.8 21 70.8 2.2 67.2 2.2 67.2 9.8"/>
    <rect class="st2" x="73" y="2.2" width="3.6" height="18.9"/>
    <polygon class="st2" points="108.5 5.7 108.5 2.2 97.7 2.2 97.7 21 108.5 21 108.5 17.5 101.4 17.5 101.4 13.4 107.4 13.4 107.4 9.8 101.4 9.8 101.4 5.7 108.5 5.7"/>
  </g>
  <g>
    <path class="st0" d="M33.9,33.6v-6.8h4.8v.8h-3.8v5.1h3.9v.8h-4.9ZM34.8,30.6v-.8h3.5v.8h-3.5Z"/>
    <path class="st0" d="M42.8,33.7c-.5,0-1,0-1.5-.2s-.8-.4-1.1-.6l.4-.8c.3.2.6.4,1,.6.4.1.8.2,1.2.2s.7,0,1-.1.4-.2.5-.4c.1-.2.2-.3.2-.5s0-.4-.2-.6c-.2-.1-.3-.3-.6-.3s-.5-.2-.8-.2c-.3,0-.6-.1-.9-.2s-.6-.2-.8-.3-.4-.3-.6-.5-.2-.5-.2-.9,0-.7.3-1c.2-.3.5-.5.8-.7s.9-.3,1.5-.3.8,0,1.2.2c.4.1.7.3,1,.4l-.3.8c-.3-.2-.6-.3-.9-.4-.3,0-.6-.1-.9-.1s-.7,0-.9.1-.4.2-.5.4c-.1.2-.2.3-.2.5s0,.4.2.6c.2.1.3.3.6.3s.5.2.8.2c.3,0,.6.1.9.2.3,0,.6.2.8.3.2.1.4.3.6.5.1.2.2.5.2.9s0,.7-.3,1c-.2.3-.5.5-.9.7-.4.2-.9.3-1.5.3Z"/>
    <path class="st0" d="M48.6,33.6v-5.9h-2.3v-.8h5.6v.8h-2.3v5.9h-1Z"/>
    <path class="st0" d="M55.8,33.6v-.7l2.8-2.7c.2-.2.4-.4.5-.6.1-.2.2-.3.2-.5,0-.2,0-.3,0-.4,0-.3-.1-.6-.4-.8-.2-.2-.6-.3-1.1-.3s-.7,0-1,.2-.5.3-.8.6l-.7-.6c.3-.3.6-.6,1-.8.4-.2.9-.3,1.4-.3s.9,0,1.2.2c.3.2.6.4.8.7.2.3.3.6.3,1s0,.4,0,.6c0,.2-.2.4-.3.7s-.4.5-.7.8l-2.5,2.4-.2-.4h4.1v.8h-4.9Z"/>
    <path class="st0" d="M64.7,33.7c-.5,0-1-.1-1.4-.4-.4-.3-.7-.7-1-1.2-.2-.5-.4-1.1-.4-1.9s.1-1.4.4-1.9c.2-.5.6-.9,1-1.2.4-.3.9-.4,1.4-.4s1,.1,1.4.4c.4.3.7.7,1,1.2.2.5.4,1.1.4,1.9s-.1,1.4-.4,1.9c-.2.5-.6.9-1,1.2-.4.3-.9.4-1.4.4ZM64.7,32.8c.4,0,.7,0,.9-.3s.5-.5.6-.9c.2-.4.2-.9.2-1.4s0-1.1-.2-1.4c-.2-.4-.4-.7-.6-.9-.3-.2-.6-.3-.9-.3s-.7,0-.9.3c-.3.2-.5.5-.6.9-.2.4-.2.9-.2,1.4s0,1.1.2,1.4c.2.4.4.7.6.9s.6.3.9.3Z"/>
    <path class="st0" d="M70,33.6v-6.4l.4.5h-1.9v-.8h2.5v6.8h-1Z"/>
    <path class="st0" d="M75.7,33.7c-.6,0-1.1-.1-1.5-.4-.4-.3-.7-.6-1-1.1s-.3-1.1-.3-1.8.1-1.4.4-1.9.6-.9,1.1-1.2,1-.4,1.7-.4.6,0,.9,0c.3,0,.5.2.8.3l-.4.8c-.2-.1-.4-.2-.6-.3s-.5,0-.7,0c-.7,0-1.2.2-1.6.6-.4.4-.6,1.1-.6,1.9s0,.3,0,.5c0,.2,0,.4,0,.6l-.3-.3c0-.3.2-.5.5-.7.2-.2.5-.4.8-.5s.6-.1,1-.1.8,0,1.2.3c.3.2.6.4.8.7.2.3.3.7.3,1.1s-.1.8-.3,1.1c-.2.3-.5.6-.9.7s-.8.3-1.2.3ZM75.7,32.9c.3,0,.6,0,.8-.2.2-.1.4-.3.5-.5.1-.2.2-.4.2-.7,0-.4-.1-.7-.4-1-.3-.2-.7-.4-1.1-.4s-.6,0-.8.2c-.2.1-.4.3-.5.5-.1.2-.2.4-.2.7s0,.4.2.6c.1.2.3.4.5.5.2.1.5.2.9.2Z"/>
  </g>
  <text class="st1" transform="translate(34.4 59)"><tspan x="0" y="0">EST 2016</tspan></text>
</svg>