<?xml version="1.0" encoding="UTF-8"?>
<svg id="Layer_1" xmlns="http://www.w3.org/2000/svg" version="1.1" viewBox="0 0 520 520">
  <!-- Generator: Adobe Illustrator 29.0.0, SVG Export Plug-In . SVG Version: 2.1.0 Build 186)  -->
  <defs>
    <style>
      .st0 {
        fill: #121212;
      }

      .st1 {
        fill: #fff;
      }
    </style>
  </defs>
  <rect class="st0" width="520" height="520"/>
  <path class="st1" d="M247.9,378.7v2.5c0,27.9-5.1,54.9-14.4,81.1h0c-36.3-3.4-70.1-17.8-98-38.9l33.8-71-71,33.8c-21.1-27.9-35.5-60.9-40.5-98h2.5c26.2-10.2,53.3-15.2,81.1-15.2,59.2,0,107.3,48.2,107.3,107.3h0l-.8-1.7h0Z"/>
  <path class="st1" d="M247.9,139.6v1.7c0,59.2-48.2,107.3-107.3,107.3h-1.7c-27.9,0-54.9-5.1-81.1-14.4h-.8c5.1-37.2,19.4-70.1,40.5-98l71,32.9-32.9-71c27.8-21.1,60.8-35.4,97.1-40.5h0c9.3,27,14.4,54.1,14.4,82h.8Z"/>
  <path class="st1" d="M463.4,233.4h-.8c-26.2,10.2-53.3,14.4-81.1,14.4h-1.7c-59.2,0-107.3-48.2-107.3-107.3v-1.7c0-27.9,5.1-54.9,14.4-81.1h0c36.3,3.4,70.1,17.8,98,39.7l-32.9,71,71-32.9c21.1,27.9,35.5,60.9,40.5,98h0Z"/>
  <path class="st1" d="M422.8,384.7l-71-33.8,32.9,71c-27.9,21.1-60.9,35.5-98,40.5h0c-9.3-27-14.4-54.1-14.4-82v-1.7c0-59.2,48.2-107.3,107.3-107.3h1.7c27.9,0,54.9,5.1,81.1,14.4h.8c-5.1,37.2-19.4,70.1-40.5,98h0v.8h0Z"/>
</svg>