<?xml version="1.0" encoding="UTF-8"?>
<svg id="Layer_1" xmlns="http://www.w3.org/2000/svg" version="1.1" viewBox="0 0 1080 1080">
  <!-- Generator: Adobe Illustrator 29.0.0, SVG Export Plug-In . SVG Version: 2.1.0 Build 186)  -->
  <defs>
    <style>
      .st0 {
        fill: #be9b62;
        isolation: isolate;
        opacity: .4;
      }

      .st1 {
        fill: none;
        stroke: #be9b62;
        stroke-miterlimit: 10;
        stroke-width: 25px;
      }
    </style>
  </defs>
  <path class="st1" d="M837.8,520v-213.1c-40.8-3-105.6-12.9-176.6-47.7-56.4-27.7-97.1-61.5-123.5-87.2-25.2,25.1-63.1,57.2-115.1,84.1-74.4,38.4-143.2,48.2-185,50.9v213.1c0,123.3,62.3,238.2,165.7,305.5l134.4,87.5,134.4-87.5c103.3-67.3,165.7-182.2,165.7-305.5Z"/>
  <rect class="st1" x="384.8" y="389.6" width="305.9" height="305.9" rx="44.7" ry="44.7"/>
  <path class="st0" d="M484,377h107.4v68.1c0,14.4-11.7,26-26,26h-55.4c-14.4,0-26-11.7-26-26v-68.1h0Z"/>
</svg>