<?xml version="1.0" encoding="UTF-8"?>
<svg id="Layer_1" xmlns="http://www.w3.org/2000/svg" version="1.1" viewBox="0 0 1080 1080">
  <!-- Generator: Adobe Illustrator 29.0.0, SVG Export Plug-In . SVG Version: 2.1.0 Build 186)  -->
  <defs>
    <style>
      .st0 {
        fill: #be9b62;
      }

      .st1 {
        stroke-linecap: round;
        stroke-linejoin: round;
      }

      .st1, .st2 {
        fill: none;
        stroke: #be9b62;
        stroke-width: 25px;
      }

      .st2 {
        stroke-miterlimit: 10;
      }
    </style>
  </defs>
  <g>
    <path class="st2" d="M539.9,264.6c-97,54.8-194,109.5-291,164.3,0,9.6.1,19.1.2,28.7h581.7v-28.7c-96.9-54.8-193.9-109.5-290.8-164.3Z"/>
    <line class="st1" x1="278" y1="750.7" x2="802" y2="750.7"/>
    <line class="st1" x1="226.1" y1="815.4" x2="853.9" y2="815.4"/>
  </g>
  <g>
    <path class="st0" d="M322.5,663.2v-134.8h11.7l93,117.1h-6.2v-117.1h14.1v134.8h-11.7l-92.8-117.1h6.2v117.1h-14.3Z"/>
    <path class="st0" d="M538.2,664.4c-10.3,0-19.7-1.7-28.4-5.1-8.7-3.4-16.2-8.2-22.5-14.3-6.4-6.2-11.3-13.4-14.8-21.8-3.5-8.3-5.3-17.5-5.3-27.3s1.8-19,5.3-27.3c3.5-8.3,8.5-15.6,14.9-21.8,6.4-6.2,14-10.9,22.6-14.3,8.7-3.4,18.1-5.1,28.4-5.1s19.7,1.6,28.2,4.8c8.5,3.2,15.8,8.1,21.9,14.6l-8.9,9.1c-5.7-5.6-11.9-9.7-18.7-12.1-6.8-2.4-14.1-3.7-22-3.7s-16,1.4-23,4.1c-7,2.8-13.1,6.7-18.3,11.7-5.2,5.1-9.2,11-12.1,17.7s-4.3,14.2-4.3,22.2,1.4,15.3,4.3,22.1c2.9,6.8,6.9,12.7,12.1,17.8,5.2,5.1,11.3,9,18.3,11.7,7,2.8,14.6,4.1,22.8,4.1s15-1.2,21.9-3.5c6.9-2.3,13.2-6.2,19-11.7l8.1,10.8c-6.4,5.7-13.9,9.9-22.5,12.8-8.6,2.9-17.6,4.3-27,4.3ZM587.7,647.2l-13.7-1.7v-49.7h13.7v51.4Z"/>
    <path class="st0" d="M686.8,664.4c-10.1,0-19.5-1.7-28.2-5.1-8.7-3.4-16.2-8.2-22.5-14.4-6.4-6.2-11.3-13.5-14.8-21.8-3.5-8.3-5.3-17.4-5.3-27.2s1.8-19,5.3-27.2c3.5-8.3,8.5-15.5,14.8-21.8,6.4-6.2,13.8-11,22.4-14.4,8.6-3.4,18-5.1,28.3-5.1s19.5,1.7,28.1,5.1c8.6,3.4,16.1,8.2,22.4,14.3,6.4,6.2,11.3,13.4,14.8,21.8,3.5,8.3,5.3,17.5,5.3,27.3s-1.8,19-5.3,27.3c-3.5,8.3-8.5,15.6-14.8,21.8-6.4,6.2-13.8,10.9-22.4,14.3-8.6,3.4-18,5.1-28.1,5.1ZM686.8,651.7c8.1,0,15.6-1.4,22.4-4.1,6.9-2.8,12.8-6.7,17.9-11.7,5.1-5.1,9-11,11.8-17.7,2.8-6.7,4.2-14.2,4.2-22.2s-1.4-15.5-4.2-22.2c-2.8-6.7-6.8-12.6-11.8-17.7-5.1-5.1-11-9-17.9-11.7-6.9-2.8-14.3-4.1-22.4-4.1s-15.6,1.4-22.5,4.1c-6.9,2.8-12.9,6.7-18,11.7-5.1,5.1-9.1,11-11.9,17.7s-4.3,14.2-4.3,22.2,1.4,15.3,4.3,22.1c2.9,6.8,6.9,12.7,11.9,17.8,5.1,5.1,11.1,9,18,11.7,6.9,2.8,14.4,4.1,22.5,4.1Z"/>
  </g>
</svg>